@startuml
Clase01 <|-- Clase02
Clase03 *-- Clase04
Clase05 o-- Clase06
Clase07 -- Clase08
Clase09 .. Clase10
interface interface11
interface11<|..Clase12
abstract Clase12
Clase12 <|-- Clase13

Clase01 : +operacion01()
Clase01 : ~operacion01.1()
Clase01 : -atributo01
Clase01 : {static} operacion_de_clases()

Clase03 : # Clase04[] parte01

interface11 : metodo01()
interface11 : metodo02()

Clase12 : {abstract} metodo01()
Clase12 : metodo02()



@enduml